<svg width="516" height="516" viewBox="0 0 516 516" fill="none" xmlns="http://www.w3.org/2000/svg">
<g filter="url(#filter0_d_19_151)">
<path d="M435.375 84.6562H80.625C73.1409 84.6563 65.9634 87.6293 60.6713 92.9213C55.3793 98.2134 52.4063 105.391 52.4062 112.875V403.125C52.4062 410.609 55.3793 417.787 60.6713 423.079C65.9634 428.371 73.1409 431.344 80.625 431.344H435.375C442.859 431.344 450.037 428.371 455.329 423.079C460.621 417.787 463.594 410.609 463.594 403.125V112.875C463.594 105.391 460.621 98.2134 455.329 92.9213C450.037 87.6293 442.859 84.6563 435.375 84.6562ZM80.625 108.844H435.375C436.444 108.844 437.47 109.268 438.226 110.024C438.982 110.78 439.406 111.806 439.406 112.875V329.696L380.006 270.295C377.385 267.675 374.274 265.596 370.851 264.178C367.427 262.759 363.757 262.029 360.051 262.029C356.345 262.029 352.675 262.759 349.252 264.178C345.828 265.596 342.717 267.675 340.096 270.295L296.922 313.47L205.392 221.92C202.772 219.3 199.661 217.221 196.237 215.803C192.813 214.384 189.143 213.654 185.438 213.654C181.732 213.654 178.062 214.384 174.638 215.803C171.214 217.221 168.103 219.3 165.483 221.92L76.5938 310.809V112.875C76.5938 111.806 77.0185 110.78 77.7745 110.024C78.5305 109.268 79.5558 108.844 80.625 108.844ZM76.5938 403.125V345.015L182.575 239.033C182.95 238.655 183.396 238.355 183.887 238.151C184.378 237.946 184.905 237.841 185.438 237.841C185.97 237.841 186.497 237.946 186.988 238.151C187.479 238.355 187.925 238.655 188.3 239.033L356.423 407.156H80.625C79.5558 407.156 78.5305 406.732 77.7745 405.976C77.0185 405.22 76.5938 404.194 76.5938 403.125ZM435.375 407.156H390.628L314.034 330.562L357.189 287.388C357.563 287.013 358.008 286.716 358.497 286.513C358.987 286.31 359.511 286.205 360.041 286.205C360.571 286.205 361.095 286.31 361.585 286.513C362.074 286.716 362.519 287.013 362.893 287.388L439.487 363.982V403.125C439.487 403.661 439.38 404.192 439.172 404.687C438.965 405.181 438.661 405.629 438.278 406.004C437.895 406.38 437.441 406.675 436.942 406.873C436.444 407.071 435.911 407.167 435.375 407.156ZM294.281 201.562C294.281 197.576 295.463 193.679 297.678 190.364C299.893 187.05 303.041 184.466 306.724 182.941C310.407 181.415 314.46 181.016 318.37 181.794C322.28 182.571 325.871 184.491 328.69 187.31C331.509 190.129 333.429 193.72 334.206 197.63C334.984 201.54 334.585 205.593 333.059 209.276C331.534 212.959 328.95 216.107 325.636 218.322C322.321 220.537 318.424 221.719 314.438 221.719C309.092 221.719 303.965 219.595 300.185 215.815C296.405 212.035 294.281 206.908 294.281 201.562Z" fill="black"/>
</g>
<defs>
<filter id="filter0_d_19_151" x="-4" y="0" width="524" height="524" filterUnits="userSpaceOnUse" color-interpolation-filters="sRGB">
<feFlood flood-opacity="0" result="BackgroundImageFix"/>
<feColorMatrix in="SourceAlpha" type="matrix" values="0 0 0 0 0 0 0 0 0 0 0 0 0 0 0 0 0 0 127 0" result="hardAlpha"/>
<feOffset dy="4"/>
<feGaussianBlur stdDeviation="2"/>
<feComposite in2="hardAlpha" operator="out"/>
<feColorMatrix type="matrix" values="0 0 0 0 0 0 0 0 0 0 0 0 0 0 0 0 0 0 0.25 0"/>
<feBlend mode="normal" in2="BackgroundImageFix" result="effect1_dropShadow_19_151"/>
<feBlend mode="normal" in="SourceGraphic" in2="effect1_dropShadow_19_151" result="shape"/>
</filter>
</defs>
</svg>
